<?xml version="1.0" encoding="utf-8"?>
<!-- Generator: Adobe Illustrator 16.0.0, SVG Export Plug-In . SVG Version: 6.00 Build 0)  -->
<!DOCTYPE svg PUBLIC "-//W3C//DTD SVG 1.1//EN" "http://www.w3.org/Graphics/SVG/1.1/DTD/svg11.dtd">
<svg version="1.1" id="Layer_1" xmlns="http://www.w3.org/2000/svg" xmlns:xlink="http://www.w3.org/1999/xlink" x="0px" y="0px"
	 width="200px" height="76px" viewBox="0 0 200 76" enable-background="new 0 0 200 76" xml:space="preserve">
	<g style="fill: #333">
		<path d="M133.056,18.082c-2.565,2.836-3.281,6.535-3.752,10.121l-0.088,30.45l0.175,0.175
			c2.478-0.035,5,0.078,7.416-0.087c0.053-10.122-0.14-20.356,0.175-30.363c0.079-1.658,0.401-3.412,1.396-4.799
			c0.296-0.437,0.768-0.794,0.872-1.31l-4.362-5.933C134.198,16.729,133.579,17.463,133.056,18.082z"/>
		<path d="M189.507,24.451c-2.749-3.342-6.344-6.099-10.384-7.067c-8.585-2.521-17.633-0.052-23.296,6.98
			c-5.183,6.099-6.011,15.723-2.704,22.946c3.664,7.853,12.006,12.922,20.939,12.303c7.6-0.34,14.824-5.488,18.062-12.477
			C195.701,40.121,194.445,30.437,189.507,24.451z M182.265,48.271c-3.708,3.856-9.702,5.061-14.658,3.054
			c-4.991-1.945-8.769-7.154-8.725-12.563c-0.358-5.881,2.914-11.413,8.026-13.873c4.224-2.129,10.34-1.492,13.96,1.483
			c1.929,1.518,3.22,3.455,4.275,5.409C187.709,37.225,186.374,43.97,182.265,48.271z"/>
		<path d="M109.672,46.787c-4.484-6.831-8.69-13.768-13.175-20.591c-2.853-4.014-6.972-7.198-11.604-8.027
			c-7.276-1.518-13.707,1.475-18.322,7.067c-4.686,6.937-9.109,13.978-13.524,21.027c-2.006,2.618-4.598,5.313-7.853,5.672
			c-4.092,0.575-7.556-1.623-9.859-4.887L24.777,30.82c-3.525-6.482-10.096-12.268-17.887-11.778l0.087,0.087l-0.087,0.087
			c0.131,2.129,0.131,4.415,0,6.544l0.087,0.088l-0.087,0.087l0.087,0.087c3.805-0.183,7.033,2.313,9.249,5.497l9.161,13.96
			c3.08,4.816,6.675,10.793,12.478,12.651c7.006,2.225,14.788,0.393,19.544-5.497c4.415-6.046,8.079-12.39,12.128-18.584
			c2.251-3.612,5.261-8.429,9.858-9.074c4.171-0.654,7.722,1.064,10.209,4.362c4.808,7.111,8.978,14.484,13.873,21.552
			c3.438,5.034,8.716,7.861,14.745,7.765v-6.806C114.811,51.69,111.731,49.641,109.672,46.787z"/>
		<path d="M80.967,39.808c-2.016,0.131-3.971,1.518-4.799,3.402c-0.951,1.841-0.576,4.45,0.698,6.021
			c1.475,1.788,3.795,2.399,6.107,1.832c1.684-0.532,3.438-2.181,3.839-3.926c0.131-1.789,0.262-3.481-0.785-4.887
			C84.806,40.479,82.974,39.851,80.967,39.808z"/>
	</g>
</svg>
