<?xml version="1.0" encoding="utf-8"?>
<!-- Generator: Adobe Illustrator 16.0.0, SVG Export Plug-In . SVG Version: 6.00 Build 0)  -->
<!DOCTYPE svg PUBLIC "-//W3C//DTD SVG 1.1//EN" "http://www.w3.org/Graphics/SVG/1.1/DTD/svg11.dtd">
<svg version="1.1" id="Layer_1" xmlns="http://www.w3.org/2000/svg" xmlns:xlink="http://www.w3.org/1999/xlink" x="0px" y="0px"
	 width="200px" height="76px" viewBox="0 0 200 76" enable-background="new 0 0 200 76" xml:space="preserve">
	 <g style="fill: #333">
		<path fill-rule="evenodd" clip-rule="evenodd"  d="M120.236,29.821c-2.982,0-5.325,0.639-7.669,1.917
			c0-6.815,0-12.993,0.213-15.124L98.509,19.17v1.278L100,20.662c1.917,0.425,2.557,1.49,2.981,4.047
			c0.427,5.112,0.214,32.378,0,36.852c3.835,0.853,7.882,1.492,11.93,1.492c11.29,0,18.105-7.03,18.105-18.107
			C133.017,36.212,127.479,29.821,120.236,29.821L120.236,29.821z M115.338,60.707c-0.854,0-1.917,0-2.558-0.211
			c-0.213-2.981-0.425-15.551-0.213-26.627c1.278-0.427,2.13-0.64,3.195-0.64c4.687,0,7.243,5.538,7.243,12.354
			C123.006,54.105,119.81,60.707,115.338,60.707L115.338,60.707z"/>
		<path fill-rule="evenodd" clip-rule="evenodd"  d="M44.828,17.467H7.338v1.917l2.13,0.213
			c2.769,0.425,3.834,2.129,4.259,6.177c0.64,7.668,0.427,21.515,0,28.118c-0.425,4.048-1.49,5.965-4.259,6.177l-2.13,0.428v1.703
			h24.07v-1.703l-2.556-0.428c-2.769-0.212-3.834-2.129-4.26-6.177c-0.214-2.771-0.426-7.244-0.426-12.78l5.112,0.212
			c3.196,0,4.686,2.557,5.325,6.178h1.917V32.378h-1.917c-0.64,3.621-2.129,6.177-5.325,6.177l-5.112,0.213
			c0-7.242,0.212-14.059,0.426-18.105h7.454c5.752,0,8.735,3.621,10.864,10.012l2.13-0.64L44.828,17.467L44.828,17.467z"/>
		<path fill-rule="evenodd" clip-rule="evenodd"  d="M56.971,29.395c10.651,0,15.977,7.243,15.977,16.828
			c0,9.161-5.964,16.83-16.616,16.83c-10.65,0-15.976-7.244-15.976-16.83C40.356,37.063,46.32,29.395,56.971,29.395L56.971,29.395z
			 M56.332,31.525c-4.686,0-5.964,6.39-5.964,14.697c0,8.094,2.13,14.698,6.392,14.698c4.897,0,6.176-6.391,6.176-14.698
			C62.936,38.129,60.806,31.525,56.332,31.525L56.332,31.525z"/>
		<path fill-rule="evenodd" clip-rule="evenodd"  d="M135.787,46.437c0-8.733,5.538-17.042,16.402-17.042
			c8.945,0,13.206,6.604,13.206,15.338h-19.812c-0.212,7.88,3.622,13.632,11.291,13.632c3.408,0,5.112-0.851,7.242-2.343l0.853,1.064
			c-2.132,2.981-6.816,5.966-12.78,5.966C142.603,63.053,135.787,56.236,135.787,46.437L135.787,46.437z M145.584,42.391l10.013-0.214
			c0-4.261-0.639-10.651-4.26-10.651S145.797,37.489,145.584,42.391L145.584,42.391z"/>
		<path fill-rule="evenodd" clip-rule="evenodd"  d="M190.744,31.1c-2.557-1.066-5.965-1.705-9.798-1.705
			c-7.882,0-12.781,4.686-12.781,10.225c0,5.538,3.62,7.881,8.734,9.586c5.323,1.915,6.815,3.407,6.815,5.964
			c0,2.556-1.917,4.898-5.325,4.898c-4.047,0-7.029-2.343-9.373-8.733l-1.491,0.428l0.213,9.372c2.557,1.064,7.242,1.918,11.291,1.918
			c8.307,0,13.633-4.263,13.633-10.865c0-4.473-2.344-7.029-7.883-9.16c-5.964-2.343-8.094-3.832-8.094-6.603
			c0-2.769,1.918-4.687,4.474-4.687c3.834,0,6.391,2.343,8.308,8.094l1.49-0.426L190.744,31.1L190.744,31.1z"/>
		<path fill-rule="evenodd" clip-rule="evenodd"  d="M100.639,30.247c-3.62-2.13-10.012-1.066-13.419,6.604l0.212-7.456
			l-14.272,2.77v1.278l1.491,0.213c1.918,0.214,2.769,1.278,2.982,4.048c0.427,5.112,0.213,14.06,0,18.533
			c-0.213,2.554-1.064,3.832-2.982,4.046l-1.491,0.214v1.703H92.97v-1.703l-2.556-0.214c-2.13-0.214-2.769-1.492-2.982-4.046
			c-0.425-4.049-0.425-12.143-0.212-17.255c1.065-1.492,5.751-2.77,10.01,0L100.639,30.247L100.639,30.247z"/>
	</g>
</svg>
