<?xml version="1.0" encoding="utf-8"?>
<!-- Generator: Adobe Illustrator 16.0.0, SVG Export Plug-In . SVG Version: 6.00 Build 0)  -->
<!DOCTYPE svg PUBLIC "-//W3C//DTD SVG 1.1//EN" "http://www.w3.org/Graphics/SVG/1.1/DTD/svg11.dtd">
<svg version="1.1" id="Layer_1" xmlns="http://www.w3.org/2000/svg" xmlns:xlink="http://www.w3.org/1999/xlink" x="0px" y="0px"
	 width="200px" height="76px" viewBox="0 0 200 76" enable-background="new 0 0 200 76" xml:space="preserve">
	<g style="fill: #333">
		<path d="M18.212,26.292c2.893-0.223,6.192-0.482,8.639,0.89c2.744,1.334,3.188,4.263,3.003,7.117l-0.149,0.186
			l-6.339-0.111c0.037-0.964-0.037-1.891-0.259-2.743c-0.558-0.89-1.521-1.261-2.595-1.075c-0.743,0.148-1.595,0.704-1.78,1.52
			c-0.036,0.853-0.036,1.965,0.741,2.596c3.56,2.818,8.786,3.707,10.751,8.453c0.37,3.113,0.482,6.895-2.484,8.896
			c-3.559,2.039-9.23,2.262-12.827,0.148c-2.741-1.779-3.484-4.855-2.928-8.082l6.858,0.076c0.037,1.148-0.147,2.371,0.186,3.408
			c0.259,0.594,0.89,1.039,1.483,1.225c1.037,0.26,2.112,0.037,2.854-0.705c0.594-0.742,0.668-1.928,0.371-2.854
			c-3.336-4.264-10.232-4.486-11.678-10.493c-0.297-2.594,0.297-5.004,2.225-6.747L18.212,26.292z M184.775,52.797
			c-2.482,0.41-5.523,0.52-7.748-0.443c-2.039-0.777-4.039-2.744-4.264-4.967l-0.109-14.162c0.037-1.929,0.777-3.671,2.15-4.969
			c3.447-2.631,9.193-2.631,12.975-0.705c2.779,1.521,3.15,4.523,3.113,7.452l-0.186,0.186h-6.301l-0.186-0.186
			c0.186-1.223,0.186-2.521-0.705-3.559c-0.668-0.444-1.445-0.63-2.299-0.52c-0.742,0.223-1.557,0.558-1.891,1.335l-0.074,14.681
			l0.52,0.779c0.703,0.629,1.631,0.703,2.596,0.629c3.039-0.594,1.557-4.152,1.963-6.414c-0.889,0-1.777,0.111-2.594-0.074
			l0.074-3.744l9.082,0.111c-0.52,4.412,1.482,10.012-2.41,12.977L184.775,52.797z M48.539,52.539
			c-1.149-7.748-2.3-15.496-3.449-23.207h-0.11L41.42,52.539h-6.822l4.709-25.542h11.307c1.558,8.526,3.262,16.978,4.708,25.542
			H48.539z M82.606,52.539c-0.111-7.674-0.073-15.422-0.333-23.058c-1.595,7.636-2.893,15.384-4.374,23.058h-6.415
			c-1.444-7.674-2.742-15.422-4.337-23.058c-0.222,7.599-0.296,15.273-0.259,22.984l-6.34,0.074
			c0.186-8.377,0.371-17.127,0.557-25.542h10.306c1.112,6.524,2.076,13.123,3.3,19.574c1.187-6.451,2.261-12.975,3.188-19.574h10.416
			c0.186,8.415,0.371,17.052,0.52,25.542H82.606z M110.633,51.908c-3.67,2.002-8.859,2.002-12.531,0
			c-2.742-1.668-3.15-4.855-2.854-7.746l6.672-0.076c0.148,1.633-0.48,3.67,1.262,4.523c0.814,0.482,2.039,0.295,2.854-0.074
			c1.113-0.668,1.188-2.039,0.965-3.189c-1.891-2.854-5.189-3.742-7.822-5.521c-2.484-1.521-4.152-3.969-3.818-6.933
			c0.074-2.039,0.926-3.818,2.668-5.079c3.709-2.077,9.047-2.039,12.717,0.074l1.225,1.335c0.852,1.52,1,3.262,0.889,5.152h-6.303
			c0-1.372,0.223-3.003-1.26-3.633c-0.777-0.334-1.816-0.186-2.559,0.185c-1,0.594-0.926,1.743-0.891,2.67
			c1.633,2.706,4.783,3.336,7.193,4.967c2.076,1.371,4.486,3.264,4.373,5.969C113.561,47.422,113.191,50.277,110.633,51.908z
			 M137.25,47.57c-0.26,2.262-2.113,4.375-4.264,5.043c-4.188,1.002-9.75,1.26-12.566-2.559c-0.705-1.223-0.965-2.668-0.965-4.189
			V26.997h6.414l0.074,20.13c0.26,0.852,1.148,1.52,2.039,1.594c0.852,0.074,1.557-0.111,2.15-0.557l0.703-1.037l0.111-20.13h6.377
			L137.25,47.57z M165.98,52.168l-8.971,0.111c-2.373-6.857-4.152-13.977-6.488-20.834c-0.186,6.932,0.297,13.901,0.26,20.723
			l-6.229,0.111V26.997h9.416c2.004,6.673,3.855,13.494,5.969,20.019c0.111-6.746-0.223-13.199-0.26-20.019h6.303V52.168z"/>
	</g>
</svg>
