<?xml version="1.0" encoding="utf-8"?>
<!-- Generator: Adobe Illustrator 16.0.0, SVG Export Plug-In . SVG Version: 6.00 Build 0)  -->
<!DOCTYPE svg PUBLIC "-//W3C//DTD SVG 1.1//EN" "http://www.w3.org/Graphics/SVG/1.1/DTD/svg11.dtd">
<svg version="1.1" id="Layer_1" xmlns="http://www.w3.org/2000/svg" xmlns:xlink="http://www.w3.org/1999/xlink" x="0px" y="0px"
	 width="200px" height="76px" viewBox="0 0 200 76" enable-background="new 0 0 200 76" xml:space="preserve">
	<g style="fill: #333">
		<path d="M16.725,33.471c-0.612-0.368-1.225-0.981-1.163-1.777c0-0.613,0.122-1.164,0.735-1.593
			c3.43-1.96,7.841-0.552,11.21,0.612l-0.061-5.329c-4.778-1.287-11.396-1.837-15.806,0.734c-2.635,1.655-3.982,4.411-3.676,7.413
			c-0.184,4.962,5.33,6.738,8.821,8.332c1.837,1.041,4.595,1.286,5.146,3.736c0,0.674-0.184,1.348-0.734,1.776
			c-3.922,2.146-8.883,0.43-12.682-0.489V52.4c3.309,0.734,6.738,1.225,10.477,0.979c4.227-0.245,8.943-1.777,10.353-6.126
			c0.735-2.817,0.489-6.125-1.716-8.209C24.26,36.533,20.34,35.369,16.725,33.471z"/>
		<path d="M190.033,38.984c-3.246-2.329-6.922-3.677-10.475-5.33c-0.553-0.307-1.287-0.735-1.408-1.409
			c-0.246-0.796,0.061-1.532,0.488-2.083c3.492-2.021,8.025-0.613,11.395,0.551v-5.329c-4.777-1.287-11.395-1.837-15.865,0.734
			c-2.697,1.655-3.922,4.535-3.676,7.598c0.551,6.615,7.963,7.105,12.373,9.74c0.553,0.428,1.348,0.919,1.533,1.653
			c0.244,0.857,0,1.717-0.676,2.267c-3.92,2.146-8.76,0.43-12.68-0.489V52.4c3.002,0.857,6.309,0.979,9.68,0.979
			c4.533-0.122,9.557-1.347,11.148-6.065C192.607,44.437,192.424,41.066,190.033,38.984z"/>
		<path d="M34,52.89c2.636-0.122,5.453-0.062,8.025-0.062V24.832H33.94L34,52.89z"/>
		<path d="M56.791,40.821h10.904l-0.122-4.594c-3.492,0.122-7.106,0-10.721,0.061l-0.123-0.184l0.062-6.25
			l12.558-0.061l-0.061-4.962H48.949l0.061,28.058c6.801-0.122,13.724-0.062,20.585-0.062V47.5l-12.865-0.062L56.791,40.821z"/>
		<path d="M91.77,42.353l-7.045-17.521H74.556v27.996h5.453l0.183-19.052c2.696,6.433,5.269,12.864,7.903,19.358
			h4.961c2.757-6.432,5.208-12.987,8.149-19.358l0.061,19.113c2.451-0.122,5.023-0.062,7.598-0.062V24.832h-9.741
			C96.671,30.653,94.343,36.594,91.77,42.353z"/>
		<path d="M123.688,40.821h10.904c-0.061-1.531,0.063-3.124-0.123-4.594c-3.49,0.122-7.166,0-10.721,0.061
			l-0.121-0.184l0.061-6.25h12.498v-5.022h-20.34v27.996h20.646V47.5l-12.865-0.062L123.688,40.821z"/>
		<path d="M160.139,42.966l-9.619-18.134h-9.127V52.89c1.777-0.122,3.736-0.062,5.451-0.062l0.123-18.378
			c3.492,6.005,6.617,12.253,9.986,18.378h8.82V24.832h-5.512L160.139,42.966z"/>
	</g>
</svg>
