<?xml version="1.0" encoding="utf-8"?>
<!-- Generator: Adobe Illustrator 16.0.0, SVG Export Plug-In . SVG Version: 6.00 Build 0)  -->
<!DOCTYPE svg PUBLIC "-//W3C//DTD SVG 1.1//EN" "http://www.w3.org/Graphics/SVG/1.1/DTD/svg11.dtd">
<svg version="1.1" id="Layer_1" xmlns="http://www.w3.org/2000/svg" xmlns:xlink="http://www.w3.org/1999/xlink" x="0px" y="0px"
	 width="200px" height="76px" viewBox="0 0 200 76" enable-background="new 0 0 200 76" xml:space="preserve">
	<g style="fill: #333">
		<path d="M102.827,16.936c6.059-2.82,10.039-9.172,9.475-15.936c-2.094,0.125-3.959,0.793-5.729,1.689
			c-5.479,2.872-9.275,8.504-8.74,14.908C99.545,17.708,101.3,17.487,102.827,16.936z"/>
		<path d="M117.735,41.023c-0.719-6.411,2.145-12.102,7.711-15.421c-2.438-3.768-6.322-5.905-10.354-6.757
			c-5.802-1.542-10.884,1.293-15.937,2.864c-2.77,0.184-5.008-1.344-7.49-2.056c-6.595-2.534-13.763-0.103-18.287,5.288
			c-7.888,9.525-5.045,24.998,0.073,34.883c2.739,4.613,5.765,9.951,10.795,12.779c4.744,2.145,8.681-1.623,13.146-2.131
			c4.399-0.777,7.917,1.469,11.751,2.498c3.312,0.807,6.293-0.492,8.592-2.791c4.451-4.848,7.74-10.172,9.621-16.084
			C122.259,51.813,118.029,46.656,117.735,41.023z"/>
	</g>
</svg>
