<?xml version="1.0" encoding="utf-8"?>
<!-- Generator: Adobe Illustrator 16.0.0, SVG Export Plug-In . SVG Version: 6.00 Build 0)  -->
<!DOCTYPE svg PUBLIC "-//W3C//DTD SVG 1.1//EN" "http://www.w3.org/Graphics/SVG/1.1/DTD/svg11.dtd">
<svg version="1.1" id="Layer_1" xmlns="http://www.w3.org/2000/svg" xmlns:xlink="http://www.w3.org/1999/xlink" x="0px" y="0px"
	 width="200px" height="76px" viewBox="0 0 200 76" enable-background="new 0 0 200 76" xml:space="preserve">
	<g style="fill: #333">
		<path d="M148.776,8.251c-8.923-5.709-19.58-7.345-30.86-7.248c-16.989,0.545-32.497,4.949-46.33,13.189l0.039,2.104
			c4.871-2.514,9.936-4.559,15.158-6.254c16.443-5.261,38.673-8.299,54.941-0.526c5.143,2.377,10.052,7.657,11.025,13.229
			c1.851,8.845-3.195,16.813-10.655,21.371v6.041c7.988-2.824,15.059-11.066,16.365-19.366
			C160.018,21.772,156.531,13.278,148.776,8.251z"/>
		<path d="M138.119,49.963V18.226h-5.748v25.62c-0.039,1.07,0.157,2.064,0.547,2.98
			C133.872,48.854,136.015,49.807,138.119,49.963z"/>
		<path d="M143.594,22.668c0.936,0.253,1.929,0.02,2.571-0.76c0.566-0.643,0.604-1.792,0.235-2.513
			c-0.313-0.468-0.762-0.936-1.268-1.092c-0.721-0.155-1.578-0.136-2.162,0.332c-0.72,0.604-1.072,1.5-0.839,2.474
			C142.328,21.753,142.933,22.454,143.594,22.668z M142.834,19.337c0.506-0.604,1.229-0.8,1.968-0.701
			c0.487,0.117,0.955,0.486,1.207,0.935c0.293,0.623,0.274,1.402-0.077,1.968c-0.312,0.37-0.739,0.642-1.169,0.798
			c-0.895,0.117-1.695-0.292-2.103-1.032C142.425,20.642,142.425,19.902,142.834,19.337z"/>
		<polygon points="69.249,18.967 63.541,18.967 63.541,24.441 69.249,24.383 	"/>
		<path d="M144.003,20.739c0.682,0.117,0.508,1.461,1.462,1.071c-0.196-0.37-0.371-0.759-0.623-1.11
			c0.154-0.156,0.447-0.234,0.467-0.468c0.097-0.312,0.058-0.681-0.137-0.935l-0.272-0.194c-0.467-0.117-1.13-0.176-1.539,0.057
			v2.612l0.077,0.097C144.335,22.103,143.672,21.051,144.003,20.739z M144.003,19.532c0.274-0.02,0.508,0.02,0.702,0.136
			c0.097,0.117,0.039,0.273,0.058,0.429c-0.175,0.292-0.526,0.136-0.799,0.175L144.003,19.532z"/>
		<path d="M107.259,27.617c-1.326-0.079-2.845-0.079-4.208,0l-0.097-0.098l-0.039-6.118h-5.611l0.039,23.282
			c0.097,1.326,0.644,2.475,1.5,3.506c2.065,2.475,5.475,1.871,8.455,1.969l-0.039-4.734l-2.941-0.039
			c-0.663-0.137-1.208-0.76-1.324-1.402l-0.039-11.748l4.344-0.078L107.259,27.617z"/>
		<path d="M80.042,66.699c-9.937-1.209-20.339-3.43-26.048-12.801c-5.163-9.547-1.305-21.275,5.436-28.853
			l-0.058-2.903c-6.157,5.377-10.424,11.807-11.768,19.307c-1.481,9.857,1.831,19.346,10.326,25.016
			c11.825,7.832,27.14,8.846,41.984,7.676c14.282-1.383,27.782-4.654,39.979-11.086v-8.414c-1.363,0.816-2.747,1.557-4.17,2.238
			C119.008,64.574,100.071,68.473,80.042,66.699z"/>
		<path d="M129.002,40.611c0.176-3.486-0.254-6.701-1.968-9.391c-0.624-0.876-1.441-1.792-2.338-2.435
			c-3.078-2.162-8.026-2.026-11.126,0c-4.228,2.845-5.318,7.774-4.635,12.722c0.33,3.506,2.727,7.287,6.272,8.357
			c4.481,1.424,9.897,0.799,13.092-2.902l-3.507-3.313c-1.695,2.027-4.577,2.475-7.11,1.869c-1.461-0.406-2.786-1.887-3.078-3.369
			c-0.099-0.467-0.215-1.053-0.099-1.5L129.002,40.611z M117.176,32.332c1.713-0.701,4.092-0.487,5.183,1.267
			c0.584,0.915,0.799,1.967,0.896,3.078l-8.749,0.059C114.547,34.922,115.325,32.994,117.176,32.332z"/>
		<path d="M63.541,44.82c0.078,1.83,0.74,3.527,2.338,4.576c1.032,0.586,2.182,0.996,3.409,0.996V27.656l-0.098-0.078
			h-5.611C63.501,33.229,63.56,39.074,63.541,44.82z"/>
		<path d="M80.139,32.195c1.89,0.039,3.82-0.079,5.65,0.097c0.644,0.157,1.287,0.76,1.403,1.403l0.097,16.502h5.65
			v-16.17c-0.039-0.975-0.233-1.91-0.545-2.766c-0.857-2.164-3.136-3.527-5.377-3.644l-12.585-0.04l-0.039,22.62h5.65L80.139,32.195z
			"/>
	</g>
</svg>
