<?xml version="1.0" encoding="utf-8"?>
<!-- Generator: Adobe Illustrator 16.0.0, SVG Export Plug-In . SVG Version: 6.00 Build 0)  -->
<!DOCTYPE svg PUBLIC "-//W3C//DTD SVG 1.1//EN" "http://www.w3.org/Graphics/SVG/1.1/DTD/svg11.dtd">
<svg version="1.1" id="Layer_1" xmlns="http://www.w3.org/2000/svg" xmlns:xlink="http://www.w3.org/1999/xlink" x="0px" y="0px"
	 width="200px" height="76px" >
	<g style="fill: #333">
		<path d="M82.68,30.919c-1.813-3.924-6.17-5.901-10.353-4.814c-4.063,1.538-8.204,2.909-12.268,4.452
			c-0.513,0.259-1.159,0.311-1.604,0.621h13.562l0.104,0.104c0.756,2.867,1.6,5.693,2.277,8.592l-0.052,0.052
			c-0.803-0.61-1.609-1.216-2.484-1.656c-4.125-2.257-10.249-1.729-13.924,1.139c-2.977,2.329-4.482,5.906-3.364,9.576
			c1.103,3.52,4.777,6.206,8.229,6.884c5.585,1.082,10.942-0.797,14.338-5.383h0.104c0.414,1.521,0.828,3.033,1.242,4.555
			c0.104,0.13-0.005,0.357,0.155,0.466l10.715-0.052c-1.242-4.658-2.484-9.316-3.727-13.976
			C84.568,37.989,83.818,34.371,82.68,30.919z M74.19,50.381c-1.382,1.314-3.359,1.822-5.228,1.346
			c-1.91-0.491-3.566-2.37-3.882-4.296c-0.332-2.335,0.673-4.509,2.743-5.642c1.775-1.025,4.395-0.834,5.952,0.517
			c0.668,0.606,1.289,1.325,1.604,2.123C76.229,46.416,75.748,48.88,74.19,50.381z"/>
		<path d="M49.086,49.915c-4.301,3.437-11.485,3.902-16.201,1.035c-5.439-3.178-8.354-9.021-7.401-15.27l-0.052-0.052
			l0.052-0.052c0.518-3.162,1.91-5.968,4.348-8.333c4.027-4.131,10.575-5.27,15.891-3.158c0.808,0.357,1.662,0.704,2.33,1.295
			l-4.504,7.246l-3.209,5.072v0.104h0.052l14.441-8.333l0.155-0.155c-1.066-1.688-2.563-3.339-4.192-4.659
			c-8.008-6.521-21.74-6.692-30.487-1.656c-6.03,3.515-9.602,9.81-8.852,16.822c0.099,0.124,0.031,0.373,0.052,0.466
			c0.109,0.839,0.384,1.626,0.569,2.434c1.802,6.956,9.11,11.812,15.735,13.043c2.614,0.575,5.461,0.616,8.334,0.569
			c6.413-0.486,12.257-2.577,16.719-7.557l0.052-0.259c-0.13-0.678-0.368-1.361-0.569-1.967
			C51.482,47.762,50.323,49.035,49.086,49.915z"/>
		<path d="M187.134,28.124c-1.382-1.973-3.722-2.723-6.004-2.122c-2.18,0.982-4.369,1.951-6.522,3.002
			c-0.963,0.372-1.843,0.963-2.847,1.242c-0.15-0.699-0.357-1.377-0.776-1.967c-0.596-0.85-1.366-1.61-2.277-2.019
			c-2.443-1.237-4.948,0.176-7.039,1.19l-6.574,3.054l-0.88,0.466c-0.135,0.072-0.357,0.057-0.414,0.207l7.247,0.052v24.275
			l10.766-0.052l0.052-22.05c0.171-0.642,0.419-1.247,1.035-1.708c0.668-0.569,1.683-0.601,2.536-0.414
			c0.875,0.228,1.543,1.175,1.812,1.967l0.104,22.257h10.663l0.052-24.534C187.988,29.92,187.677,28.978,187.134,28.124z"/>
		<path d="M155.3,39.511c-0.233-1.47-0.513-2.919-1.087-4.244c-1.372-3.546-4.788-6.962-8.334-8.333
			c-5.352-2.241-11.951-1.118-16.149,2.847c-4.472,4.151-6.216,10.616-4.089,16.46c1.75,5.196,6.885,9.456,12.319,10.041
			c3.442,0.362,6.631-0.207,9.369-1.708c5.435-2.981,8.597-8.825,7.919-15.011L155.3,39.511z M144.74,53.59
			c-0.854,0.616-2.049,0.859-3.105,0.518c-2.091-0.585-2.246-2.878-2.795-4.555l-1.449-5.383c-0.994-3.883-2.091-7.718-3.105-11.595
			c-0.42-1.206-0.191-2.646,0.673-3.571c0.869-0.953,2.086-1.196,3.364-0.983c0.745,0.212,1.402,0.729,1.915,1.397
			c0.652,0.957,0.616,2.205,1.035,3.261c1.517,5.875,3.199,11.672,4.71,17.547C146.19,51.54,145.775,52.767,144.74,53.59z"/>
		<path d="M113.271,26.002c-2.18,0.982-4.369,1.951-6.522,3.002c-0.963,0.372-1.843,0.963-2.847,1.242
			c-0.15-0.699-0.357-1.377-0.776-1.967c-0.596-0.85-1.366-1.61-2.277-2.019c-2.443-1.237-4.948,0.176-7.04,1.19l-6.573,3.054
			l-0.88,0.466c-0.135,0.072-0.357,0.057-0.414,0.207l7.246,0.052v24.275l10.767-0.052l0.052-22.05
			c0.171-0.642,0.419-1.247,1.035-1.708c0.668-0.569,1.682-0.601,2.536-0.414c0.875,0.228,1.543,1.175,1.812,1.967l0.104,22.257
			h10.663l0.052-24.534c-0.078-1.051-0.389-1.993-0.932-2.847C117.893,26.151,115.553,25.401,113.271,26.002z"/>
	</g>
</svg>
