<?xml version="1.0" encoding="utf-8"?>
<!-- Generator: Adobe Illustrator 16.0.0, SVG Export Plug-In . SVG Version: 6.00 Build 0)  -->
<!DOCTYPE svg PUBLIC "-//W3C//DTD SVG 1.1//EN" "http://www.w3.org/Graphics/SVG/1.1/DTD/svg11.dtd">
<svg version="1.1" id="Layer_1" xmlns="http://www.w3.org/2000/svg" xmlns:xlink="http://www.w3.org/1999/xlink" x="0px" y="0px"
	 width="200px" height="76px" viewBox="0 0 200 76" enable-background="new 0 0 200 76" xml:space="preserve">
	<g style="fill: #333">
		<path d="M82.22,72.202c0.69-1.824,1.324-3.671,2.063-5.471c-0.883-0.26-1.785-0.437-2.639-0.769
			c-8.023-2.538-15.279-10.58-17.707-18.475c-0.096-0.336-0.192-0.672-0.288-1.008c-2.538-7.673-1.54-17.347,2.112-24.185
			c3.066-6.325,9.525-12.17,16.075-14.252c0.624-1.584,1.248-3.167,1.871-4.751H45.797c-0.105,0.153-0.316,0.077-0.48,0.096
			c-2.62,0.451-5.019,2.889-5.566,5.471c-0.067,0.307-0.053,0.633-0.192,0.912l0.047,56c0.02,0.48,0.125,0.921,0.289,1.344
			c0.835,2.793,3.459,4.929,6.382,5.135L82.22,72.202z"/>
		<path d="M70.559,50.704c2.447,0.091,4.962,0.028,7.438,0.048c2.428-7.011,5.058-13.94,7.438-20.971
			c0.293-0.518,0.379-1.118,0.672-1.631c1.228,0.019,2.495-0.044,3.695,0.048c-2.586,7.543-5.379,15.005-7.966,22.554h7.294
			c2.083-5.716,4.103-11.45,6.142-17.18c0.499-2.116,2.007-3.939,1.439-6.382c-0.283-1.555-1.713-2.678-3.215-2.928l-5.998-0.096
			c2.414-6.982,4.981-13.892,7.391-20.874h-7.391c-5.519,15.471-11.037,30.932-16.556,46.403
			C70.755,50.008,70.75,50.392,70.559,50.704z"/>
		<path d="M144.314,3.341L98.967,3.293c-0.538,1.564-1.008,3.162-1.487,4.751c3.686-0.24,7.309,0.24,10.508,1.438
			c0.303,0.179,0.688,0.154,0.961,0.385c6.982,2.524,13.416,9.334,15.979,16.22c3.172,7.313,2.826,17.447-0.623,24.521
			c-3.292,7.687-11.21,14.391-19.242,16.026c-1.854,0.504-3.936,0.601-5.902,0.672c-0.609,1.607-1.066,3.287-1.68,4.896l0.047,0.048
			h45.685c0.844,0.019,1.598-0.188,2.351-0.385c2.515-0.781,4.507-3.455,4.799-5.998l0.048-55.616
			c-0.082-0.782-0.178-1.56-0.48-2.256C149.141,5.654,146.742,3.653,144.314,3.341z"/>
		<path d="M167.779,6.412c-0.624-1.334-2.021-2.414-3.359-2.831c-1.396-0.475-3.271-0.379-4.559,0.288
			c-1.833,0.912-3.143,2.802-3.263,4.798l0.048,0.048c-0.153,0.873,0.145,1.806,0.385,2.64c0.743,1.805,2.557,3.173,4.414,3.503
			c2.342,0.312,4.434-0.456,5.854-2.303C168.543,10.951,168.84,8.192,167.779,6.412z M166.292,12.074
			c-1.186,1.546-3.019,2.179-4.895,1.728c-1.44-0.278-2.903-1.603-3.312-3.022c-0.619-1.694-0.221-3.687,0.96-4.99
			c1.199-1.272,2.898-1.791,4.606-1.393c1.406,0.321,2.658,1.435,3.215,2.783C167.468,8.72,167.275,10.774,166.292,12.074z"/>
		<path d="M164.469,9.195c0.725-0.471,0.811-1.349,0.672-2.159c-0.678-1.943-3.105-1.08-4.799-1.296l-0.049,6.718
			h1.008l0.049-2.927h1.055c0.662,0.955,1.219,1.948,1.824,2.927h1.151c-0.624-0.979-1.296-1.934-1.871-2.927
			C163.825,9.416,164.18,9.382,164.469,9.195z M161.397,8.667l-0.048-2.015c0.94,0.12,2.164-0.336,2.734,0.575
			c0.092,0.369,0.072,0.816-0.191,1.104C163.178,8.878,162.262,8.48,161.397,8.667z"/>
		<path d="M100.694,51.711h7.869c1.589-0.071,3.148-0.83,3.887-2.352c1.867-5.302,3.82-10.571,5.663-15.883
			c0.571-2.208,2.068-4.213,1.487-6.719c-0.451-1.415-1.963-2.316-3.311-2.591l-13.148-0.097l-0.096,0.049
			C97.402,40.18,91.605,56.184,85.962,72.25h7.39c2.333-6.594,4.747-13.148,7.006-19.771
			C100.474,52.22,100.579,51.971,100.694,51.711z M109.093,28.15h3.646l-0.049,0.144c-2.303,6.479-4.606,12.957-6.91,19.435
			c-1.185,0.091-2.428,0.029-3.646,0.048C104.384,41.203,106.841,34.724,109.093,28.15z"/>
	</g>
</svg>
